<svg id="Layer_1" data-name="Layer 1" xmlns="http://www.w3.org/2000/svg" viewBox="0 0 365.94 422.45"><defs><style>.cls-1{fill:#fff;}</style></defs><title>logo(white)</title><path class="cls-1" d="M549.36,309.31q0-13.68,0-27.35c0-1,0-1.92.1-2.87a4.44,4.44,0,0,1,2.12-3.57c1.2-.78,2.44-1.52,3.69-2.24l168.26-97c1.52-.88,3.06-1.74,4.64-2.5a8.73,8.73,0,0,1,7.87,0c1.58.75,3.13,1.6,4.65,2.48l164.93,95.14c1.94,1.12,3.86,2.27,5.84,3.32a6.8,6.8,0,0,1,3.8,6.66c-.08,5.76-.09,11.52-.09,17.27q0,19.2,0,38.39c0,.16,0,.32,0,.48-.07,4.18-.86,5-5.13,5-9.28,0-18.55,0-27.83,0-.48,0-1,0-1.44,0-2.75-.24-3.73-1.16-3.8-3.9-.09-3.36,0-6.72,0-10.08,0-8.16-.15-16.32.11-24.47.13-4.06-1.4-6.45-4.88-8.44Q838.71,276.44,805.32,257c-22.29-12.87-44.62-25.67-66.78-38.76-4.6-2.72-8.2-2.69-12.82,0q-62.35,36.37-124.91,72.37a47.76,47.76,0,0,1-4.75,2.26c-5.86,2.57-8.93,7-9.12,13.44a37.43,37.43,0,0,0,0,3.84c.67,9.11.21,18.23.22,27.34,0,.32,0,.64,0,1-.16,2.82-1,3.72-3.72,4-.79.07-1.6,0-2.4,0-8.48,0-17,0-25.43,0-5.8,0-6.17-.32-6.18-6.28q0-13.44,0-26.87Z" transform="translate(-549.36 -172.78)"/><path class="cls-1" d="M915.23,485.61a13,13,0,0,1,0-1.44q0-24.23,0-48.46c0-2.08.08-4.16,0-6.24-.17-3.06-1.14-4-4.1-4.13-.64,0-1.28,0-1.92,0H882.78a21.72,21.72,0,0,0-2.87.1,3,3,0,0,0-2.81,2.8,35,35,0,0,0-.09,3.83c0,10.72-.07,21.43.11,32.15.06,3.47-1.19,5.58-4.21,7.31-23.57,13.52-47.07,27.18-70.6,40.78Q779.67,525.39,757,538.42c-1.38.8-2.82,1.51-4.26,2.19-.65.3-1.31.12-1.43-.67a18,18,0,0,1-.2-2.86q0-32.15,0-64.3c0-4.09.35-4.45,4.31-5.72.46-.15.92-.27,1.38-.4,44.14-12.85,72.3-59.44,59.76-106A87.28,87.28,0,0,0,718.9,297a83.81,83.81,0,0,0-43.46,19.89c-19.35,16.81-29.7,38.06-30.65,63.76a84.61,84.61,0,0,0,2.87,23.73c5.31,21.18,16.55,38.27,34.93,50.4a96.82,96.82,0,0,0,24.17,11.5c6.92,2.19,6.48,3.32,6.48,9.23q0,14.88,0,29.75h-.07q0,12,0,24c0,3,0,6.08-.06,9.12-.08,2.35-.88,2.75-3.06,1.65-1-.5-2-1.08-2.93-1.64L592.9,472.4a37.18,37.18,0,0,1-3.27-2,5.65,5.65,0,0,1-2.43-4.48c-.05-1.12,0-2.24,0-3.36q0-15.6.07-31.19c0-5.49-.51-6-6-6H555.77a24.07,24.07,0,0,0-2.87.07c-2.16.26-3.21,1.21-3.4,3.34s-.12,4.15-.12,6.23c0,16.15.05,32.31,0,48.46,0,7.44,0,7.66,6.44,11.38L724,592c7.37,4.26,9.08,4.25,16.34,0q47.92-27.79,95.84-55.56,37.15-21.5,74.37-42.87C913.87,491.74,915.66,489.46,915.23,485.61Zm-183-54.52A48,48,0,0,1,684.06,383c.16-27.39,22.86-48.4,48.42-48,25.22-.23,47.57,20.68,47.53,48.2A47.55,47.55,0,0,1,732.24,431.09Z" transform="translate(-549.36 -172.78)"/></svg>